<svg width="139" height="139" xmlns="http://www.w3.org/2000/svg">

 <g>
  <title>background</title>
  <rect fill="none" id="canvas_background" height="402" width="582" y="-1" x="-1"/>
 </g>
 <g>
  <title>Layer 1</title>
  <path fill="#5367fc" id="svg_1" d="m69.5,64.534l46.415,-28.941c-0.505,-0.08 -1.017,-0.132 -1.542,-0.132l-89.746,0c-0.525,0 -1.038,0.054 -1.541,0.132l46.414,28.941z"/>
  <path fill="#5367fc" id="svg_2" d="m72.421,75.723c-0.062,0.04 -0.13,0.066 -0.194,0.104c-0.067,0.037 -0.139,0.073 -0.206,0.107c-0.365,0.188 -0.741,0.339 -1.125,0.439c-0.04,0.011 -0.078,0.017 -0.116,0.025c-0.423,0.099 -0.848,0.16 -1.274,0.16c-0.001,0 -0.003,0 -0.004,0s-0.003,0 -0.005,0c-0.426,0 -0.852,-0.06 -1.273,-0.16c-0.039,-0.009 -0.079,-0.015 -0.118,-0.025c-0.384,-0.101 -0.757,-0.252 -1.124,-0.439c-0.069,-0.034 -0.139,-0.07 -0.207,-0.107c-0.065,-0.037 -0.132,-0.063 -0.196,-0.104l-51.574,-32.159c-0.093,0.544 -0.153,1.099 -0.153,1.671l0,51.609c0,5.398 4.375,9.774 9.774,9.774l89.746,0c5.398,0 9.774,-4.376 9.774,-9.774l0,-51.609c0,-0.572 -0.059,-1.127 -0.154,-1.671l-51.571,32.159z"/>
 </g>
</svg>