<svg width="512" height="512" xmlns="http://www.w3.org/2000/svg">

 <g>
  <title>background</title>
  <rect fill="none" id="canvas_background" height="402" width="582" y="-1" x="-1"/>
 </g>
 <g>
  <title>Layer 1</title>
  <path id="svg_4" fill="#8291ff" d="m128.528,434.092l0,-191.791c0,-2.383 0.601,-4.717 1.804,-6.794l3.936,-6.907l-92.08,0c-7.545,0 -13.666,6.14 -13.666,13.702l0,191.791c0,7.56 6.121,13.698 13.666,13.698l100,0c-7.54,-0.001 -13.66,-6.14 -13.66,-13.699z"/>
  <path id="svg_5" fill="#5367fc" d="m142.188,457.79l-100,0c-13.049,0 -23.666,-10.631 -23.666,-23.698l0,-191.791c0,-13.069 10.617,-23.702 23.666,-23.702l92.08,0c3.563,0 6.856,1.895 8.646,4.975c1.79,3.081 1.806,6.88 0.042,9.976l-3.936,6.907c-0.338,0.584 -0.492,1.185 -0.492,1.844l0,191.791c0,2.039 1.642,3.698 3.66,3.698c5.523,0 10,4.478 10,10s-4.478,10 -10,10zm-100,-219.19c-2.021,0 -3.666,1.661 -3.666,3.702l0,191.791c0,2.039 1.645,3.698 3.666,3.698l76.628,0c-0.189,-1.205 -0.288,-2.44 -0.288,-3.698l0,-191.792c0,-1.245 0.097,-2.483 0.289,-3.702l-76.629,0l0,0.001z"/>
  <path id="svg_7" fill="#8291ff" d="m428.825,201.201l-96.355,0l0,-82.197c0,-30.222 -24.51,-54.794 -54.646,-54.794l-40.994,0c-7.537,0 -13.656,6.136 -13.656,13.694l0,64.855l-48.913,85.84l-3.936,6.907c-1.202,2.078 -1.803,4.412 -1.803,6.794l0,191.791c0,7.56 6.121,13.698 13.659,13.698l13.667,0l192.673,0c21.59,0 41.208,-12.793 49.924,-32.548l43.828,-98.885c0.795,-1.749 1.205,-3.644 1.205,-5.559l0,-54.797c0.001,-30.226 -24.511,-54.799 -54.653,-54.799z"/>
  <path id="svg_8" fill="#5367fc" d="m388.521,457.79l-206.34,0c-13.046,0 -23.659,-10.631 -23.659,-23.698l0,-191.791c0,-4.162 1.088,-8.244 3.148,-11.803l51.504,-90.388l0,-62.206c0,-13.065 10.612,-23.694 23.656,-23.694l40.994,0c35.646,0 64.646,29.066 64.646,64.794l0,72.197l86.355,0c35.65,0 64.653,29.069 64.653,64.799l0,54.799c0,3.366 -0.707,6.629 -2.102,9.696l-43.789,98.799c-10.315,23.38 -33.502,38.496 -59.066,38.496zm-151.691,-383.58c-2.016,0 -3.656,1.657 -3.656,3.694l0,64.855c0,1.736 -0.452,3.442 -1.312,4.951l-52.849,92.748c-0.337,0.583 -0.492,1.184 -0.492,1.843l0,191.791c0,2.039 1.642,3.698 3.659,3.698l206.341,0c17.645,0 33.649,-10.435 40.774,-26.584l43.835,-98.9c0.244,-0.537 0.348,-1.015 0.348,-1.507l0,-54.799c0,-24.702 -20.031,-44.799 -44.653,-44.799l-96.355,0c-5.522,0 -10,-4.477 -10,-10l0,-82.197c0,-24.7 -20.028,-44.794 -44.646,-44.794l-40.994,0z"/>
 </g>
</svg>